<svg width="459" height="240" viewBox="0 0 459 240" fill="none" xmlns="http://www.w3.org/2000/svg">
<path d="M417.78 218.951C416.606 218.951 415.407 218.895 414.17 218.778C438.914 205.452 431.529 157.146 428.173 126.186C424.816 95.2281 406.131 61.2203 375.255 58.395C373.813 58.2631 372.373 58.203 370.935 58.203C363.497 58.203 356.103 59.81 348.713 61.4182C341.325 63.0253 333.94 64.6322 326.527 64.6334C324.684 64.6334 322.84 64.5333 320.994 64.3106C302.694 62.098 287.625 48.1556 269.507 44.7542C266.506 44.191 263.523 43.9259 260.566 43.9259C238.034 43.9259 216.916 59.2751 199.503 74.761C179.804 92.2804 158.765 112.074 132.496 113.547C131.425 113.608 130.354 113.636 129.287 113.636C113.039 113.636 97.1656 107.098 80.8406 106.98C80.6998 106.979 80.5567 106.978 80.416 106.978C55.417 106.978 31.8606 122.795 19.1764 144.451C6.41963 166.232 3.81253 193.008 8.39077 217.855C-24.5118 133.693 47.9488 81.3022 77.5892 77.1173C95.486 74.589 113.996 77.3965 131.578 73.1858C155.112 67.5506 173.815 50.2468 192.019 34.2402C210.224 18.2324 230.652 2.22701 254.763 0.218231C256.542 0.0709534 258.317 0.000289917 260.082 0.000289917C285.861 0.000289917 310.161 14.8747 336.103 17.6068C339.76 17.9921 343.436 18.1335 347.124 18.1335C352.3 18.1335 357.495 17.8542 362.684 17.5738C367.872 17.2946 373.054 17.0142 378.2 17.0142C385.242 17.0142 392.217 17.5385 399.056 19.3022C422.883 25.4487 440.923 46.0148 450.435 68.8018C459.749 91.1187 473.36 218.951 417.78 218.951Z" fill="#F3FAFD"/>
<path d="M414.17 218.777C438.914 205.451 431.53 157.145 428.174 126.185C424.817 95.2275 406.132 61.2196 375.255 58.3944C366.36 57.5802 357.533 59.4983 348.714 61.4176C339.489 63.424 330.272 65.4316 320.995 64.3099C302.694 62.0973 287.626 48.1549 269.507 44.7535C243.644 39.8983 219.203 57.241 199.503 74.7603C179.805 92.2797 158.766 112.073 132.497 113.547C115.125 114.522 98.2395 107.105 80.8412 106.98C55.685 106.798 31.9332 122.672 19.1769 144.45C6.42022 166.231 3.81311 193.007 8.39135 217.855L414.17 218.777Z" fill="#DDF4FB"/>
<path d="M225.508 231.884C160.446 231.884 107.702 230.399 107.702 228.567C107.702 226.735 160.446 225.25 225.508 225.25C290.571 225.25 343.314 226.735 343.314 228.567C343.314 230.399 290.571 231.884 225.508 231.884Z" fill="#DCDAE7"/>
<path d="M109.526 212.97H334.493V179.528H109.526V212.97Z" fill="#003B56"/>
<path d="M344.12 154.453C344.12 154.453 338.024 155.518 337.494 154.453C336.963 153.388 285.956 133.143 243.65 133.152C209.716 133.158 182.927 143.587 151.463 162.162C151.463 162.162 110.307 168.833 101.293 178.417C101.293 178.417 89.6705 186.202 91.7501 203.714C93.0615 214.759 101.559 215.164 112.693 214.898C112.693 214.898 108.499 181.503 138.142 184.01C163.326 186.14 158.554 217.028 158.554 217.028H284.74C284.74 217.028 285.27 203.312 285.799 199.986C286.86 193.331 295.078 182.413 310.454 184.01C327.318 185.762 332.951 201.21 331.892 214.257C331.892 214.257 349.688 218.093 352.073 203.714L356.314 202.382C356.314 202.382 357.906 172.561 343.061 160.046L346.242 157.915L344.12 154.453Z" fill="#256799"/>
<path d="M312.826 156.52C312.826 156.52 314.606 158.07 312.826 159.904C311.048 161.737 302.548 168.107 298.594 168.498C294.641 168.887 174.656 177.123 167.541 175.088C160.424 173.056 156.273 169.446 158.053 167.378L161.276 166.304L217.851 167.378L312.826 156.52Z" fill="#DDF4FB"/>
<path d="M122.554 208.399C122.554 200.979 128.546 194.98 135.914 194.98C143.301 194.98 149.294 200.979 149.294 208.399C149.294 215.821 143.301 221.839 135.914 221.839C128.546 221.839 122.554 215.821 122.554 208.399ZM135.914 188.231C124.833 188.231 115.854 197.268 115.854 208.399C115.854 219.529 124.833 228.568 135.914 228.568C147.015 228.568 155.994 219.529 155.994 208.399C155.994 197.268 147.015 188.231 135.914 188.231Z" fill="#414042"/>
<path d="M125.207 208.4C125.207 202.46 130.001 197.644 135.915 197.644C141.848 197.644 146.642 202.46 146.642 208.4C146.642 214.34 141.848 219.155 135.915 219.155C130.001 219.155 125.207 214.34 125.207 208.4ZM135.915 194.98C128.546 194.98 122.555 200.979 122.555 208.4C122.555 215.821 128.546 221.839 135.915 221.839C143.302 221.839 149.294 215.821 149.294 208.4C149.294 200.979 143.302 194.98 135.915 194.98Z" fill="#F3FAFD"/>
<path d="M135.914 197.643C130 197.643 125.206 202.46 125.206 208.399C125.206 214.339 130 219.154 135.914 219.154C141.848 219.154 146.642 214.339 146.642 208.399C146.642 202.46 141.848 197.643 135.914 197.643Z" fill="#DDF4FB"/>
<path d="M354.413 181.53C354.413 181.53 347.268 183.661 344.281 178.132C341.292 172.604 337.989 166.759 337.989 165.496C337.989 163.908 339.488 158.676 343.225 159.704C343.225 159.704 353.775 169.889 354.413 181.53Z" fill="#F3FAFD"/>
<path d="M98.1794 188.161C98.1794 188.161 125.209 177.252 120.827 173.553C118.515 171.598 96.2886 182.395 98.1794 188.161Z" fill="#F3FAFD"/>
<path d="M165.909 217.121H165.908H165.909ZM165.908 217.121L165.329 217.028H165.92C165.916 217.061 165.913 217.09 165.908 217.121ZM106.878 214.994C106.878 214.992 106.875 214.966 106.87 214.916C107.058 214.921 107.248 214.926 107.439 214.931L106.878 214.994Z" fill="#656DAB"/>
<path d="M165.92 217.028H165.329L164.751 216.935L164.752 216.926L164.757 216.883L164.768 216.734C164.778 216.609 164.787 216.436 164.797 216.219C164.817 215.787 164.833 215.182 164.833 214.439C164.833 211.231 164.522 205.42 162.803 199.445C161.083 193.466 157.962 187.349 152.395 183.429C148.681 180.814 143.869 179.149 137.56 179.147C136.307 179.147 134.997 179.213 133.623 179.35C121.876 180.544 115.535 186.383 112.01 193.023C108.496 199.667 107.892 207.143 107.895 211.401C107.895 213.014 107.98 214.164 108.021 214.631C108.035 214.786 108.044 214.862 108.045 214.862L107.44 214.931C107.248 214.926 107.058 214.922 106.871 214.916C106.838 214.593 106.722 213.31 106.722 211.401C106.724 207.035 107.322 199.391 110.975 192.471C114.616 185.548 121.402 179.38 133.507 178.178C134.916 178.037 136.266 177.968 137.56 177.968C137.563 177.968 137.567 177.968 137.571 177.968C144.079 177.968 149.157 179.705 153.068 182.464C156.984 185.224 159.725 188.987 161.635 192.998C165.456 201.024 166.002 210.062 166.006 214.439C166.006 215.582 165.968 216.405 165.938 216.819C165.932 216.908 165.926 216.973 165.92 217.028Z" fill="#003B56"/>
<path d="M311.64 156.521C311.64 156.521 301.164 165.71 296.617 165.71C292.071 165.71 172.284 173.201 166.947 171.043C161.61 168.887 158.836 167.119 158.836 167.119C158.836 167.119 204.505 140.067 243.444 140.067C276.892 140.067 311.64 156.521 311.64 156.521Z" fill="#003B56"/>
<path d="M229.798 210.971H183.237C178.445 210.971 173.987 208.116 172.295 203.573L172.294 203.569L172.237 203.412L172.236 203.408C171.163 200.41 170.27 195.499 170.269 189.447C170.269 185.222 170.707 180.446 171.838 175.398C172.217 175.404 172.619 175.408 173.039 175.41C171.886 180.456 171.441 185.235 171.441 189.447C171.439 195.378 172.328 200.194 173.339 203.009L173.338 203.006L173.396 203.164L173.394 203.161C174.893 207.206 178.903 209.793 183.237 209.793H229.826L229.798 210.971Z" fill="#003B56"/>
<path d="M173.039 175.41C172.619 175.408 172.217 175.404 171.838 175.398C172.131 174.092 172.471 172.768 172.862 171.429C173.209 171.431 173.57 171.433 173.946 171.433C173.991 171.433 174.036 171.433 174.084 171.433C173.684 172.773 173.338 174.1 173.039 175.41Z" fill="#455AA6"/>
<path d="M230.999 209.793L231.887 172.841C231.902 172.841 231.913 172.84 231.928 172.839L231 209.793" fill="#3A589E"/>
<path d="M231.888 172.841L231.93 171.056L231.974 171.057L231.929 172.838C231.914 172.84 231.903 172.841 231.888 172.841Z" fill="#455AA6"/>
<path d="M173.946 171.434C173.571 171.434 173.209 171.432 172.862 171.43C172.902 171.29 172.944 171.148 172.987 171.008L174.109 171.348C174.101 171.376 174.093 171.405 174.085 171.434C174.036 171.434 173.992 171.434 173.946 171.434Z" fill="#313C6B"/>
<path d="M352.073 203.714L331.282 206.214L331.633 214.526C331.633 214.526 341.91 215.941 346.4 212.806C350.89 209.672 352.07 206.235 352.073 203.714Z" fill="#414042"/>
<path d="M132.76 208.444C132.76 210.199 134.177 211.621 135.923 211.621C137.671 211.621 139.088 210.199 139.088 208.444C139.088 206.689 137.671 205.267 135.923 205.267C134.177 205.267 132.76 206.689 132.76 208.444Z" fill="#727D86"/>
<path d="M293.598 208.399C293.598 200.979 299.591 194.98 306.958 194.98C314.345 194.98 320.338 200.979 320.338 208.399C320.338 215.821 314.345 221.839 306.958 221.839C299.591 221.839 293.598 215.821 293.598 208.399ZM306.958 188.231C295.877 188.231 286.898 197.268 286.898 208.399C286.898 219.529 295.877 228.568 306.958 228.568C318.059 228.568 327.038 219.529 327.038 208.399C327.038 197.268 318.059 188.231 306.958 188.231Z" fill="#414042"/>
<path d="M296.25 208.4C296.25 202.46 301.044 197.644 306.957 197.644C312.891 197.644 317.685 202.46 317.685 208.4C317.685 214.34 312.891 219.155 306.957 219.155C301.044 219.155 296.25 214.34 296.25 208.4ZM306.957 194.98C299.59 194.98 293.598 200.979 293.598 208.4C293.598 215.821 299.59 221.839 306.957 221.839C314.345 221.839 320.337 215.821 320.337 208.4C320.337 200.979 314.345 194.98 306.957 194.98Z" fill="#F3FAFD"/>
<path d="M306.958 197.643C301.044 197.643 296.25 202.46 296.25 208.399C296.25 214.339 301.044 219.154 306.958 219.154C312.892 219.154 317.686 214.339 317.686 208.399C317.686 202.46 312.892 197.643 306.958 197.643Z" fill="#DDF4FB"/>
<path d="M309.715 158.135C309.715 158.135 270.763 141.835 242.193 142.333C215.506 142.333 158.053 167.379 158.053 167.379L159.436 164.398C159.436 164.398 214.632 136.333 244.236 137.913C275.732 139.593 313.617 154.307 313.617 154.307L309.715 158.135Z" fill="#1D2738"/>
<path d="M181.772 156.523C181.772 157.768 175.116 171.434 175.116 171.434H171.099L176.437 158.41L181.772 156.523Z" fill="#414042"/>
<path d="M279.852 210.971H229.798H230.97L231 209.793H278.604C278.585 209.331 278.565 208.629 278.565 207.732C278.565 205.418 278.699 201.813 279.335 197.702C279.89 194.06 281.397 191.9 283.27 189.521C285.146 187.13 287.416 184.456 289.764 179.551C290.799 177.381 291.189 175.481 291.19 173.832C291.189 171.953 290.682 170.386 289.999 169.123C290.439 169.093 290.861 169.063 291.272 169.035C291.909 170.358 292.363 171.96 292.363 173.832C292.363 175.669 291.924 177.753 290.82 180.061C288.423 185.083 286.046 187.887 284.192 190.25C282.334 192.624 281.024 194.494 280.494 197.882C279.87 201.915 279.738 205.464 279.738 207.732C279.738 208.555 279.756 209.211 279.774 209.658C279.79 210.106 279.808 210.339 279.808 210.34L279.852 210.971Z" fill="#003B56"/>
<path d="M290 169.124C289.721 168.607 289.413 168.14 289.097 167.724C288.6 167.069 288.087 166.544 287.654 166.153C288.203 166.123 288.731 166.094 289.237 166.067C289.418 166.263 289.604 166.475 289.789 166.704C290.311 167.347 290.835 168.126 291.273 169.036C290.862 169.064 290.44 169.093 290 169.124Z" fill="#455AA6"/>
<path d="M229.826 209.793L230.712 172.91C230.727 172.909 230.738 172.908 230.753 172.908L229.826 209.793Z" fill="#3A589E"/>
<path d="M230.712 172.91L230.8 169.251C230.998 169.24 231.199 169.231 231.397 169.22L231.973 169.234L231.929 171.056L230.801 171.027L230.753 172.908C230.738 172.908 230.727 172.909 230.712 172.91Z" fill="#455AA6"/>
<path d="M230.97 210.971H229.798L229.826 209.793L230.753 172.908C231.128 172.885 231.511 172.863 231.887 172.84L230.999 209.793L230.97 210.971Z" fill="#003B56"/>
<path d="M230.753 172.908L230.801 171.028L231.929 171.056L231.887 172.841C231.512 172.863 231.128 172.886 230.753 172.908Z" fill="#42498F"/>
<path d="M230.8 169.251L230.801 169.206L231.397 169.22C231.199 169.231 230.998 169.24 230.8 169.251ZM287.654 166.152C287.145 165.692 286.748 165.416 286.623 165.334L286.582 165.308L287.2 164.306C287.231 164.326 288.165 164.908 289.236 166.066C288.73 166.093 288.203 166.123 287.654 166.152Z" fill="#313C6B"/>
<path d="M268.704 179.527H282.906V178.128C282.906 176.985 281.983 176.058 280.845 176.058H270.767C269.628 176.058 268.704 176.985 268.704 178.128V179.527Z" fill="#003B56"/>
<path d="M213.345 179.527H227.547V178.128C227.547 176.985 226.624 176.058 225.485 176.058H215.408C214.268 176.058 213.345 176.985 213.345 178.128V179.527Z" fill="#003B56"/>
<path d="M276.379 144.427L289.105 166.074L277.549 166.715L279.026 156.523L271.133 143.23L276.379 144.427Z" fill="#414042"/>
<path d="M249.689 168.254L235.007 143.226C236.431 143.03 237.811 142.873 239.137 142.757L253.176 167.812L249.689 168.254Z" fill="#264262"/>
<path d="M235.007 143.227L233.489 140.639L237.732 140.252L239.137 142.758C237.812 142.873 236.431 143.031 235.007 143.227Z" fill="#223750"/>
<path d="M192.356 151.263C192.678 151.106 199.806 147.653 202.294 147.653C202.339 147.653 202.384 147.654 202.427 147.656C198.955 148.803 195.584 150.019 192.356 151.263Z" fill="#3C5493"/>
<path d="M204.829 170.494L194.055 153.902C197.378 152.787 200.783 151.686 204.212 150.63L215.83 169.991L204.829 170.494Z" fill="#264262"/>
<path d="M194.055 153.902L192.345 151.269C192.345 151.269 192.348 151.267 192.356 151.263C195.584 150.019 198.955 148.803 202.427 147.657H202.429L204.213 150.631C200.783 151.686 197.378 152.788 194.055 153.902Z" fill="#223750"/>
<path d="M258.203 167.812L258.19 167.791C261.814 167.592 265.302 167.398 268.604 167.214L268.705 167.379L258.203 167.812Z" fill="#3E77BA"/>
<path d="M258.19 167.791L242.922 142.548C243.232 142.542 243.539 142.538 243.84 142.538C247.091 142.538 250.443 142.736 253.835 143.087L268.604 167.214C265.302 167.398 261.813 167.592 258.19 167.791Z" fill="#264262"/>
<path d="M253.835 143.088C250.443 142.737 247.09 142.539 243.84 142.539C243.539 142.539 243.231 142.542 242.922 142.548L241.436 140.092L252.203 140.422L253.835 143.088Z" fill="#223750"/>
<path d="M233.782 169.096L229.555 169.314L231.408 140.862L235.538 140.421" fill="#414042"/>
<path d="M303.804 208.403C303.804 210.157 305.219 211.58 306.966 211.58C308.714 211.58 310.129 210.157 310.129 208.403C310.129 206.646 308.714 205.224 306.966 205.224C305.219 205.224 303.804 206.646 303.804 208.403Z" fill="#727D86"/>
<path d="M355.276 188.31L356.213 188.159C356.981 188.036 357.501 187.31 357.379 186.541L357.078 184.658C356.955 183.889 356.233 183.365 355.467 183.487L354.53 183.639L355.276 188.31Z" fill="#F49B2B"/>
<path d="M177.506 175.798L179.307 173.925L176.436 170.269L173.969 172.641C173.969 172.641 173.477 172.978 173.341 173.887C173 176.161 175.914 177.452 177.506 175.798Z" fill="#414042"/>
<path d="M184.806 175.098C189.183 175.239 192.62 170.751 190.796 166.75C190.352 165.776 189.629 165.051 188.493 164.853C183.946 164.059 178.017 163.773 176.436 170.269C175.968 172.187 177.043 173.372 178.79 174.091C180.44 174.768 182.69 175.029 184.806 175.098Z" fill="#F3FAFD"/>
<path d="M202.726 188.26H198.79L202.351 193.919H199.599L203.35 201.687L202.1 195.934H205.727L202.726 188.26Z" fill="#DDF4FB"/>
<path d="M320.337 170.035C320.337 172.81 322.576 175.06 325.337 175.06C328.101 175.06 330.34 172.81 330.34 170.035C330.34 167.26 328.101 165.012 325.337 165.012C322.576 165.012 320.337 167.26 320.337 170.035Z" fill="#003B56"/>
<path d="M438.153 123.868L449.017 159.578V236.952H400.626V127.339L411.49 123.868H438.153Z" fill="#79BE00"/>
<path d="M421.846 236.785L422.29 159.411H449.017V236.785H421.846Z" fill="#3C9806"/>
<path d="M417.172 236.951H418.38V159.487L407.762 125.063L406.607 125.422L417.172 159.67V236.951Z" fill="#3C9806"/>
<path d="M406.045 166.941H410.331V151.531H406.045V166.941Z" fill="#221D3A"/>
<path d="M438.153 123.868L432.738 134.183H414.608L411.489 123.868H438.153Z" fill="#2B7156"/>
<path d="M432.739 134.183L437.12 152.385L449.017 159.578L438.154 123.868L432.739 134.183Z" fill="#3C9806"/>
<path d="M430.253 136.182L433.733 149.984H420.789L416.807 136.182H430.253Z" fill="#243653"/>
<path d="M449.017 159.578H422.291L419.855 151.531H436.914L449.017 159.578Z" fill="#79BE00"/>
<path d="M425.623 138.006H422.646L425.34 142.287H423.259L426.097 148.162L425.151 143.809H427.894L425.623 138.006Z" fill="#DDF4FB"/>
<path d="M437.403 125.848H413.026L423.044 158.972H447.479L437.403 125.848ZM422.019 159.755L411.636 125.419C411.58 125.235 411.614 125.036 411.728 124.881C411.841 124.728 412.022 124.636 412.213 124.636H437.85C438.115 124.636 438.35 124.81 438.426 125.065L448.872 159.401C448.928 159.585 448.893 159.784 448.78 159.94C448.666 160.094 448.487 160.185 448.294 160.185H422.597C422.331 160.185 422.096 160.01 422.019 159.755Z" fill="#3C9806"/>
<path d="M422.11 191.366H449.017V190.154H422.11V191.366Z" fill="#79BE00"/>
<path d="M422.11 162.02H449.017V160.806H422.11V162.02Z" fill="#79BE00"/>
<path d="M400.626 191.366H417.777V190.154H400.626V191.366Z" fill="#3C9806"/>
<path d="M360.282 240H370.895C385.827 240 397.976 227.24 397.976 211.558V179.217C397.976 167.937 400.788 163.267 403.149 161.335C405.581 159.344 407.962 159.809 408.064 159.829L408.314 158.643C408.196 158.617 405.31 158.025 402.419 160.369C398.67 163.408 396.77 169.75 396.77 179.217V211.558C396.77 226.572 385.161 238.788 370.895 238.788H360.282C346.015 238.788 334.409 226.572 334.409 211.558V178.204C334.409 177.846 334.348 169.429 329.026 169.429V170.641C333.154 170.641 333.201 178.128 333.201 178.204V211.558C333.201 227.24 345.35 240 360.282 240Z" fill="#262040"/>
<path d="M31.666 146.666L141.052 148.85C141.052 148.85 105.151 146.596 102.907 143.214C100.664 139.833 96.9078 126.311 87.8468 125.184C78.7863 124.057 75.9736 137.016 75.9736 137.016C75.9736 137.016 83.3146 120.113 72.917 114.479C62.5191 108.844 52.9737 143.214 52.9737 143.214C52.9737 143.214 54.6654 131.884 46.2512 131.351C37.8368 130.819 31.666 142.651 31.666 142.651L31.666 146.666Z" fill="white"/>
<path d="M274.732 105.295H440.118C440.118 105.295 399.737 102.759 397.213 98.9564C394.69 95.1544 390.466 79.9443 380.274 78.6766C370.082 77.4089 366.919 91.9863 366.919 91.9863C366.919 91.9863 375.175 72.973 363.48 66.6357C351.786 60.2983 341.048 98.9564 341.048 98.9564C341.048 98.9564 342.951 86.2133 333.486 85.6136C324.023 85.0139 317.083 98.3237 317.083 98.3237L274.732 105.295Z" fill="white"/>
</svg>
