<svg width="142" height="50" viewBox="0 0 142 50" fill="none" xmlns="http://www.w3.org/2000/svg">
<g clip-path="url(#clip0_1_2)">
<path fill-rule="evenodd" clip-rule="evenodd" d="M42.7483 8.1152C41.5796 2.05537 32.8088 7.90684 31.2754 2.28882e-05C28.671 7.50822 34.9164 9.95596 40.779 9.6844C41.3215 9.06844 41.987 8.53413 42.7483 8.1152H42.7483Z" fill="#1554A0"/>
<path fill-rule="evenodd" clip-rule="evenodd" d="M39.2213 13.3228C37.797 13.6243 36.169 12.5937 35.6578 12.509C33.3303 12.1235 31.0654 13.0093 30.5359 14.331C30.8756 10.1459 37.1658 8.3489 40.7888 9.67314C39.8707 10.7114 39.3034 11.9821 39.2212 13.3228H39.2213Z" fill="#FECD0A"/>
<path fill-rule="evenodd" clip-rule="evenodd" d="M26.5842 45.2356C27.0794 45.0332 27.5892 45.0425 28.0388 45.1892C28.7092 44.6888 29.3421 44.1802 29.8957 43.6554C29.5126 43.2404 29.3473 42.6782 29.5504 41.9243C30.3121 39.0967 35.504 36.1078 37.577 32.3309C41.8011 32.5031 45.1637 31.7125 47.8075 30.1187C49.9403 31.093 52.3249 31.5642 54.5187 31.3203C57.6658 30.9704 58.6025 34.1173 57.1361 37.1409C55.3165 40.8924 51.9136 43.5619 49.1386 43.242C48.7538 43.1976 48.2539 43.0982 47.7288 42.9468C46.951 43.5019 46.0707 44.2009 45.2382 44.9945C45.3552 45.382 45.3684 45.8124 45.2291 46.2439C44.8451 47.4334 43.5736 50.2747 42.656 49.9785C41.7384 49.6825 41.3134 47.4397 41.6973 46.2502C42.0813 45.0608 43.0043 43.2814 43.9219 43.5775C43.9885 43.5989 44.0543 43.6252 44.1189 43.6556C44.4138 42.9371 44.7487 42.2296 45.0993 41.5669C44.8929 41.3406 44.7508 41.0931 44.6997 40.8254C44.4136 39.3207 45.843 38.2676 46.8848 36.3212C48.1391 33.978 47.0462 33.6606 45.8555 35.3251C42.9288 39.4162 40.2302 44.3052 34.3547 44.7071C33.834 44.7427 33.1912 44.7431 32.5448 44.6734C31.611 45.0336 30.4276 45.5786 29.2205 46.0982C29.2678 46.1756 29.3085 46.2556 29.3419 46.3373C29.7065 47.2298 28.0024 48.2849 26.8451 48.7578C25.6881 49.2306 23.4197 48.9765 23.055 48.0838C22.6903 47.1912 25.4271 45.7084 26.5842 45.2356ZM67.5881 1.20523L62.91 19.0079C61.8049 18.8463 60.9652 18.9312 60.9436 19.2343C60.9234 19.5165 61.6191 19.9018 62.5999 20.1879L62.3679 21.0711C61.8408 20.9416 61.3575 20.8726 60.9881 20.9165C60.4449 20.3737 59.898 19.9086 59.4706 19.5343C59.909 17.2553 56.227 16.5919 55.0985 16.7797C54.9285 17.9163 52.4932 20.0894 50.9585 20.7945C51.9255 22.1778 56.1225 24.7609 58.5023 22.2856C59.1201 22.4389 59.7158 22.5858 60.2837 22.7659C60.3998 23.1889 60.6219 23.6102 60.9707 23.9289C61.1417 24.0853 61.3248 24.216 61.5139 24.3212L61.1978 25.5246C60.9553 25.5727 60.7097 25.6557 60.4705 25.7758C60.1027 25.9604 59.8061 26.2462 59.5859 26.5652C58.6049 26.5286 57.63 26.4092 56.7022 26.1987C56.1711 23.1877 52.4301 24.4339 50.231 21.1254C49.1962 21.561 44.6125 22.5295 41.6951 19.7028C40.2976 27.7956 53.7325 33.436 56.3429 29.216C57.4426 29.0781 58.5029 28.8645 59.4807 28.5846C59.6888 28.7125 59.9809 28.7956 60.325 28.8458L59.9268 30.361C59.6674 31.3484 60.9654 31.5552 61.2126 30.6234L61.6675 28.9085C61.7898 28.9059 61.9133 28.9017 62.0372 28.8964C63.298 28.8415 63.7092 27.1824 63.2766 26.3207C63.121 26.0105 62.8587 25.7806 62.5346 25.6392L62.8015 24.6331C63.1991 24.605 63.5592 24.4512 63.8193 24.1665C64.4082 23.5221 64.5089 22.0608 63.6335 21.4966L63.9049 20.4729C65.0175 20.6375 65.8648 20.5531 65.8866 20.2488C65.9067 19.9656 65.2055 19.578 64.2183 19.2915L68.3396 3.75319C68.8151 1.95898 68.125 1.56108 67.5883 1.20517L67.5881 1.20523ZM42.7771 15.7135C42.5975 15.9135 42.5032 16.1826 42.5398 16.4638C42.6081 16.9874 43.105 17.3544 43.6498 17.2834C44.1943 17.2124 44.5806 16.7303 44.5122 16.2066C44.4991 16.1055 44.4699 16.0105 44.4275 15.923C44.4981 15.8966 44.57 15.8675 44.6466 15.8262C45.1059 15.5795 44.7868 15.2897 44.5543 15.2901C43.7581 15.2911 42.6828 15.2 41.5323 14.7786C41.8665 15.1704 42.2957 15.4934 42.7772 15.7135H42.7771ZM43.3297 15.6779C43.1135 15.706 42.9602 15.8974 42.9873 16.1052C43.0144 16.3132 43.2116 16.4588 43.4279 16.4307C43.6441 16.4024 43.7974 16.2111 43.7703 16.0032C43.7433 15.7953 43.5459 15.6496 43.3297 15.6779ZM50.7677 15.3881C50.9716 15.5632 51.1001 15.818 51.1001 16.1015C51.1001 16.6295 50.6548 17.0576 50.1055 17.0576C49.5562 17.0576 49.1109 16.6295 49.1109 16.1015C49.1109 15.9995 49.1275 15.9014 49.1583 15.8092C49.0849 15.7922 49.0099 15.7725 48.9285 15.7416C48.4411 15.5564 48.7202 15.2276 48.9507 15.1979C49.7404 15.0961 50.7949 14.8666 51.8813 14.3001C51.6005 14.7318 51.2167 15.1075 50.7677 15.388V15.3881ZM49.9152 15.4578C50.1332 15.4578 50.31 15.6278 50.31 15.8375C50.31 16.0471 50.1333 16.217 49.9152 16.217C49.6972 16.217 49.5204 16.0471 49.5204 15.8375C49.5204 15.6278 49.6971 15.4578 49.9152 15.4578ZM41.8402 24.4863C40.0091 25.6803 38.8357 27.0845 38.1584 28.4104C37.1219 30.4399 37.6602 31.4083 40.3668 31.34C42.9953 31.2737 45.1054 30.667 46.9268 29.6322C44.5492 28.3919 42.7598 26.671 41.8401 24.4862L41.8402 24.4863ZM45.815 6.15702C50.3714 5.40009 54.6027 8.02306 55.2669 12.0157C55.93 16.0085 52.7741 19.8592 48.2177 20.6168C43.6613 21.373 39.4299 18.7508 38.766 14.7573C38.1027 10.7646 41.2587 6.91394 45.815 6.15702ZM40.4607 15.7346C40.9402 16.895 41.96 18.1279 43.2602 18.368C44.4409 18.5861 45.9169 17.7603 47.2074 17.6498C48.46 17.5422 49.7624 18.1637 50.8722 17.7926C52.2169 17.343 53.2141 15.723 53.5142 14.5158C53.7748 13.4675 53.6189 12.7201 51.9497 13.3065C49.2835 14.2449 45.6027 14.6797 42.1138 14.0392C40.4768 13.7384 39.9549 14.5115 40.4607 15.7346H40.4607Z" fill="#2B2A29"/>
<path fill-rule="evenodd" clip-rule="evenodd" d="M31.2748 18.2064H36.2897C37.0139 18.2064 37.449 18.7996 37.2571 19.5232L36.4399 22.6033C36.248 23.3268 35.4973 23.9201 34.7738 23.9201H29.759C29.0355 23.9201 28.5995 23.3275 28.7917 22.6033L29.6088 19.5232C29.8009 18.7989 30.5506 18.2064 31.2749 18.2064H31.2748ZM2.5288 18.3079H7.54349C8.26771 18.3079 8.70293 18.9011 8.51093 19.6247L7.6938 22.7049C7.50186 23.4285 6.75135 24.0217 6.02767 24.0217H1.01298C0.289422 24.0217 -0.1467 23.4292 0.0454812 22.7049L0.862672 19.6247C1.05485 18.9005 1.80459 18.3079 2.5288 18.3079ZM8.19157 24.0471H13.2064C13.9306 24.0471 14.3658 24.6403 14.1738 25.3638L13.3567 28.4441C13.1647 29.1676 12.4141 29.7608 11.6906 29.7608H6.67574C5.95219 29.7608 5.51618 29.1683 5.70836 28.4441L6.52556 25.3638C6.71774 24.6396 7.46735 24.0471 8.19163 24.0471H8.19157ZM13.753 29.8876H18.7678C19.492 29.8876 19.9272 30.4808 19.7353 31.2044L18.9181 34.2845C18.7261 35.008 17.9755 35.6013 17.252 35.6013H12.2371C11.5136 35.6013 11.0776 35.0087 11.2698 34.2845L12.087 31.2044C12.279 30.4801 13.0288 29.8876 13.753 29.8876H13.753ZM28.1261 29.8367H33.1408C33.865 29.8367 34.3002 30.4299 34.1082 31.1535L33.2911 34.2337C33.0991 34.9573 32.3486 35.5505 31.625 35.5505H26.6102C25.8866 35.5505 25.4505 34.9579 25.6427 34.2337L26.4599 31.1535C26.6521 30.4293 27.4018 29.8367 28.126 29.8367H28.1261ZM16.9018 18.2571H21.9166C22.6408 18.2571 23.076 18.8503 22.884 19.5738L22.0669 22.6541C21.8749 23.3776 21.1243 23.9708 20.4008 23.9708H15.386C14.6624 23.9708 14.2264 23.3783 14.4185 22.6541L15.2357 19.5738C15.4278 18.8496 16.1776 18.2571 16.9018 18.2571ZM22.5646 23.9963H27.5795C28.3037 23.9963 28.7388 24.5895 28.5468 25.313L27.7296 28.3932C27.5377 29.1168 26.7872 29.71 26.0635 29.71H21.0487C20.3252 29.71 19.8891 29.1174 20.0813 28.3932L20.8985 25.313C21.0907 24.5888 21.8403 23.9963 22.5646 23.9963Z" fill="#EB6320"/>
<path fill-rule="evenodd" clip-rule="evenodd" d="M75.3278 18.3734C75.2443 18.3734 75.1607 18.3734 75.0769 18.3738C74.5291 20.3514 73.9819 22.3288 73.4342 24.3063C73.3181 24.7256 72.8814 25.0674 72.4622 25.0674C71.2996 25.0674 70.1371 25.0674 68.9743 25.0674C68.5551 25.0674 68.3078 24.7255 68.4239 24.3063C69.5331 20.2997 70.6422 16.2932 71.7515 12.2868C71.8674 11.8674 72.3042 11.5255 72.7234 11.5255C74.3048 11.5255 75.8871 11.5217 77.4671 11.5271C77.7259 11.528 77.9155 11.6462 78.0018 11.8603C78.9015 14.0922 79.8139 16.3166 80.7156 18.5472C80.8 18.5472 80.884 18.5478 80.9685 18.5478C81.5465 16.4608 82.1246 14.3737 82.702 12.2868C82.8179 11.8675 83.2544 11.5255 83.6736 11.5253C84.8366 11.5249 85.9993 11.5251 87.1622 11.5251C87.5814 11.5251 87.8286 11.8672 87.7126 12.2864C86.6033 16.2932 85.4942 20.2997 84.3849 24.3064C84.2689 24.7257 83.8322 25.0677 83.4129 25.0677C81.8608 25.0677 80.3087 25.0673 78.7566 25.0674C78.506 25.0674 78.3206 24.958 78.2285 24.7558C77.2609 22.6288 76.2949 20.5007 75.3278 18.3735V18.3734ZM90.4054 11.525C91.5679 11.525 92.7304 11.525 93.8929 11.525C94.3122 11.525 94.5595 11.8669 94.4434 12.2862C93.3347 16.2929 92.2255 20.2994 91.1158 24.3062C90.9996 24.7255 90.5631 25.0673 90.1438 25.0673C88.9812 25.0673 87.8188 25.0673 86.6562 25.0673C86.2369 25.0673 85.9896 24.7254 86.1058 24.3062C87.2149 20.2994 88.324 16.2929 89.4333 12.2863C89.5494 11.8671 89.9861 11.525 90.4054 11.525ZM99.7552 18.3734C99.6716 18.3734 99.5879 18.3734 99.5042 18.3738C98.9563 20.3514 98.4091 22.3288 97.8614 24.3063C97.7453 24.7256 97.3087 25.0674 96.8895 25.0674C95.727 25.0674 94.5643 25.0674 93.4018 25.0674C92.9825 25.0674 92.7352 24.7255 92.8512 24.3063C93.9605 20.2997 95.0696 16.2934 96.1787 12.2869C96.2948 11.8677 96.7316 11.5255 97.1509 11.5256C98.7324 11.5259 100.315 11.5219 101.895 11.5274C102.154 11.5285 102.343 11.6466 102.43 11.8609C103.328 14.0925 104.243 16.3148 105.142 18.5462C105.227 18.5468 105.311 18.5478 105.396 18.5482C105.974 16.4612 106.552 14.3739 107.129 12.2867C107.245 11.8675 107.682 11.5255 108.101 11.5254C109.264 11.525 110.427 11.5252 111.59 11.5252C112.009 11.5252 112.256 11.8672 112.14 12.2865C111.031 16.2932 109.922 20.2999 108.812 24.3066C108.696 24.7257 108.26 25.0677 107.84 25.0677C106.289 25.068 104.738 25.0666 103.186 25.0681C102.935 25.0683 102.75 24.959 102.658 24.7568C101.688 22.6302 100.724 20.5008 99.7553 18.3736L99.7552 18.3734ZM122.307 15.1821C120.973 15.1821 119.639 15.1821 118.305 15.1821C117.886 15.1821 117.639 14.8401 117.755 14.4208C117.951 13.7098 118.149 12.9988 118.345 12.2878C118.461 11.8686 118.898 11.5264 119.317 11.5261C122.068 11.5246 124.818 11.5255 127.569 11.5252C127.988 11.5252 128.235 11.8668 128.119 12.286C127.583 14.2301 127.048 16.1743 126.504 18.1184C126.302 18.8403 126.134 19.554 125.839 20.2729C125.329 21.5175 124.421 22.7228 123.235 23.5527C121.842 24.5277 120.241 24.9753 118.742 25.1369C117.726 25.2464 116.731 25.2408 115.773 25.1389C115.037 25.0605 114.329 24.9014 113.687 24.6371C112.9 24.3137 112.222 23.8067 111.794 23.1046C111.386 22.4351 111.23 21.5992 111.285 20.7277C111.332 19.9754 111.549 19.2072 111.769 18.4421C111.888 18.0255 112.322 17.6886 112.738 17.6886C113.901 17.6886 115.063 17.6886 116.226 17.6886C116.436 17.6886 116.596 17.7636 116.703 17.9126C116.81 18.0614 116.835 18.2425 116.776 18.4526C116.702 18.7153 116.629 18.978 116.564 19.2406C116.434 19.7572 116.434 20.2961 116.699 20.674C116.976 21.0692 117.493 21.23 118.022 21.2636C118.57 21.2985 119.168 21.2518 119.744 20.9893C120.155 20.8018 120.525 20.4785 120.775 20.1017C120.999 19.7633 121.14 19.396 121.24 19.0356C121.595 17.7512 121.951 16.4665 122.307 15.1821L122.307 15.1821ZM136.468 23.3877C134.578 23.3747 132.683 23.3801 130.788 23.385C130.559 23.773 130.32 24.1567 130.085 24.5425C129.893 24.8579 129.555 25.0625 129.223 25.0643C127.965 25.0718 126.71 25.067 125.455 25.0665C125.199 25.0665 125.01 24.9519 124.921 24.742C124.832 24.5324 124.868 24.2863 125.022 24.0456C127.585 20.0392 130.148 16.0328 132.711 12.0266C132.907 11.7198 133.239 11.525 133.565 11.525C135.795 11.525 138.025 11.525 140.256 11.525C140.582 11.525 140.806 11.7197 140.832 12.0266C141.178 16.033 141.522 20.0397 141.866 24.0463C141.887 24.287 141.786 24.5332 141.581 24.743C141.376 24.9526 141.124 25.0672 140.868 25.0673C139.613 25.0675 138.359 25.0686 137.105 25.0665C136.772 25.0661 136.546 24.8623 136.528 24.5468C136.506 24.1612 136.481 23.7763 136.468 23.3877H136.468ZM132.769 20.092C133.949 20.0924 135.129 20.0924 136.309 20.092C136.227 18.4815 136.141 16.8722 136.062 15.2612C135.933 15.2591 135.804 15.2586 135.674 15.2597H135.674C134.705 16.8701 133.737 18.4809 132.769 20.092H132.769Z" fill="#2B2A29"/>
<path fill-rule="evenodd" clip-rule="evenodd" d="M82.328 32.5236C80.9698 32.5231 79.3828 32.5234 78.0244 32.5231C77.6052 32.5231 77.358 32.1811 77.4741 31.7619C77.6727 31.044 77.8716 30.3262 78.0704 29.6084C78.1866 29.1891 78.6231 28.8472 79.0424 28.8472C83.4294 28.8472 88.0449 28.8472 92.432 28.8472C92.8513 28.8472 93.0986 29.1892 92.9827 29.6085C92.7839 30.3264 92.5851 31.0445 92.3863 31.7624C92.2703 32.1817 91.8336 32.5236 91.4144 32.5237C90.0554 32.524 88.6977 32.5195 87.3365 32.5276C86.5 35.5611 85.6584 38.5946 84.8186 41.6281C84.7024 42.0475 84.2659 42.3894 83.8466 42.3894C82.6835 42.3894 81.5202 42.39 80.3572 42.3892C79.9382 42.389 79.6912 42.0469 79.8074 41.6278C80.6482 38.593 81.488 35.5584 82.3281 32.5236H82.328ZM99.3329 40.7072C97.4427 40.6992 95.5496 40.7027 93.6563 40.7057L93.6561 40.7058C93.424 41.0938 93.1864 41.4799 92.9508 41.8668C92.7583 42.1828 92.4192 42.3873 92.0859 42.3881C90.8303 42.3913 89.5758 42.3896 88.3211 42.3894C88.065 42.3893 87.8765 42.2747 87.7875 42.0649C87.6986 41.8553 87.7341 41.6091 87.8882 41.3684C90.4511 37.3618 93.0141 33.3553 95.5774 29.3487C95.7737 29.042 96.1054 28.8471 96.4317 28.8471C98.662 28.8471 100.892 28.8471 103.122 28.8471C103.449 28.8471 103.673 29.042 103.699 29.3489C104.044 33.3554 104.388 37.3619 104.733 41.3685C104.754 41.6092 104.653 41.8554 104.448 42.0651C104.243 42.2748 103.991 42.3895 103.735 42.3895C102.48 42.3896 101.226 42.3903 99.9716 42.3889C99.6386 42.3884 99.4123 42.1845 99.3943 41.8685C99.3724 41.482 99.3489 41.0957 99.333 40.7072L99.3329 40.7072ZM115.765 33.0652C115.88 33.0643 115.995 33.0647 116.109 33.0669C117.225 31.7868 118.337 30.5036 119.45 29.2214C119.657 28.9832 119.932 28.8477 120.209 28.8477C121.508 28.8473 122.806 28.8472 124.104 28.8472C124.388 28.8472 124.591 28.9897 124.661 29.2366C124.731 29.4835 124.648 29.7651 124.433 30.0064C122.745 31.903 121.057 33.7995 119.37 35.6961C120.015 37.5389 120.661 39.3814 121.307 41.224C121.391 41.4649 121.32 41.7481 121.114 41.9969C120.907 42.2459 120.623 42.3897 120.339 42.3897C119.044 42.3898 117.749 42.3899 116.454 42.3893C116.181 42.3892 115.983 42.2575 115.905 42.0246C115.493 40.7872 115.073 39.5535 114.668 38.3127C114.557 38.3069 114.446 38.3055 114.333 38.3075V38.3076C113.239 39.5453 112.144 40.7823 111.052 42.0213C110.846 42.2556 110.574 42.3884 110.3 42.3887C108.998 42.3905 107.697 42.3896 106.395 42.3894C106.111 42.3893 105.907 42.2454 105.838 41.9967C105.769 41.7477 105.855 41.4646 106.073 41.2237C107.738 39.3809 109.404 37.5389 111.07 35.6961V35.696C110.432 33.7996 109.795 31.9032 109.158 30.0065C109.077 29.7652 109.149 29.4838 109.356 29.2369C109.562 28.9901 109.844 28.8477 110.127 28.8475C111.433 28.8469 112.738 28.845 114.042 28.8491C114.32 28.8501 114.521 28.9882 114.593 29.2293C114.98 30.51 115.375 31.7863 115.765 33.0652H115.765ZM127.167 28.8472C128.33 28.8472 129.492 28.8472 130.655 28.8472C131.074 28.8472 131.321 29.1897 131.205 29.6085C130.096 33.6151 128.987 37.6218 127.878 41.6283C127.762 42.0472 127.325 42.3896 126.906 42.3896C125.743 42.3896 124.581 42.3896 123.418 42.3896C122.999 42.3896 122.751 42.0476 122.867 41.6283C123.977 37.6218 125.086 33.6151 126.195 29.6085C126.311 29.1892 126.748 28.8472 127.167 28.8472ZM98.5406 32.5819C97.5716 34.1922 96.6035 35.8029 95.6358 37.4137H95.6358C96.8154 37.4147 97.9954 37.4147 99.1756 37.4137H99.1757C99.0944 35.8038 99.0065 34.196 98.9298 32.5849C98.8009 32.581 98.6711 32.5803 98.5407 32.5819H98.5406Z" fill="#EB6320"/>
</g>
<defs>
<clipPath id="clip0_1_2">
<rect width="141.869" height="50" fill="white"/>
</clipPath>
</defs>
</svg>
