<svg width="34" height="20" viewBox="0 0 34 20" fill="none" xmlns="http://www.w3.org/2000/svg">
<path d="M16.713 17.4122C18.7353 15.5824 19.9992 12.9379 19.9992 9.99881C19.9992 7.05995 18.7353 4.41759 16.713 2.58753C14.9437 0.978904 12.5794 0 10.0071 0C4.47562 0 0 4.47641 0 9.99881C0 15.5233 4.47562 19.9997 10.0071 19.9997C12.5792 20 14.9434 19.019 16.713 17.4122Z" fill="#0066CB"/>
<path d="M16.713 17.4122C18.7353 15.5824 19.9992 12.9379 19.9992 9.9988C19.9992 7.05995 18.7353 4.41759 16.713 2.58752" fill="#0066CB"/>
<path d="M16.713 17.4122C18.7353 15.5824 19.9992 12.9379 19.9992 9.9988C19.9992 7.05995 18.7353 4.41759 16.713 2.58752" stroke="#0066CB" stroke-width="0.3097"/>
<path d="M23.4339 0.000267029C20.8466 0.000267029 18.4824 0.979171 16.713 2.5878C16.3561 2.91676 16.0141 3.27022 15.7019 3.64789H17.7241C18.0068 3.98297 18.2596 4.33641 18.4827 4.7061H14.9437C14.7355 5.04517 14.5423 5.39863 14.3637 5.76432H19.0624C19.2258 6.10766 19.3596 6.46085 19.4786 6.82441H13.9472C13.8282 7.16775 13.7241 7.52119 13.6499 7.88262H19.7762C19.925 8.56504 19.9992 9.27381 19.9992 9.99907C19.9992 11.1097 19.8206 12.1783 19.4786 13.1756H13.9474C14.0664 13.5389 14.2003 13.8923 14.3637 14.2354H19.0624C18.8838 14.6014 18.7055 14.9546 18.4824 15.2939H14.9434C15.1664 15.6636 15.4342 16.017 15.7019 16.3524H17.7241C17.412 16.7298 17.0699 17.0833 16.713 17.4122C18.4824 19.019 20.8466 20 23.4339 20C28.9504 20 33.4261 15.5236 33.4261 9.99907C33.4261 4.47668 28.9502 0.000267029 23.4339 0.000267029Z" fill="#CC0001"/>
<path d="M32.3702 15.5539H32.4149C32.4301 15.5539 32.4445 15.556 32.4445 15.5497C32.4597 15.5417 32.4743 15.5294 32.4743 15.5175C32.4743 15.505 32.4594 15.493 32.4445 15.4869C32.4445 15.4807 32.4149 15.4826 32.4149 15.4826H32.3702V15.5539ZM32.3702 15.7163H32.3109V15.432H32.4298C32.4594 15.432 32.4743 15.432 32.5041 15.4464C32.519 15.4626 32.5336 15.489 32.5336 15.5177C32.5336 15.5499 32.5187 15.5787 32.4889 15.5904L32.5336 15.7165H32.4594L32.4298 15.6029H32.37V15.7163H32.3702ZM32.4149 15.8201C32.5488 15.8201 32.6678 15.7104 32.6678 15.5742C32.6678 15.4379 32.5488 15.3282 32.4149 15.3282C32.2813 15.3282 32.177 15.4379 32.177 15.5742C32.177 15.7104 32.2813 15.8201 32.4149 15.8201ZM32.0878 15.5742C32.0878 15.3953 32.2366 15.2513 32.4149 15.2513C32.5935 15.2513 32.742 15.3953 32.742 15.5742C32.742 15.753 32.5933 15.897 32.4149 15.897C32.2366 15.897 32.0878 15.753 32.0878 15.5742Z" fill="#231F20"/>
<path d="M8.44554 12.7817H7.18159L7.92495 8.88389L6.21492 12.7817H5.174L4.96587 8.90624L4.13334 12.7817H2.98836L3.95476 7.7123H5.93254L5.96208 10.8502L7.3301 7.7123H9.42658L8.44554 12.7817Z" fill="#231F20"/>
<path d="M22.3483 12.7306C22.0063 12.8243 21.7385 12.8647 21.4561 12.8647C20.8168 12.8647 20.4746 12.5459 20.4746 11.959C20.4746 11.8432 20.4746 11.7195 20.5041 11.5891L20.5784 11.185L20.638 10.8601L21.2179 7.71176H22.4521L22.2738 8.65819H22.913L22.7347 9.65946H22.0954L21.7683 11.3799C21.7534 11.4568 21.7534 11.5119 21.7534 11.5505C21.7534 11.7637 21.8724 11.8571 22.1697 11.8571C22.3185 11.8571 22.4223 11.8451 22.5117 11.8185L22.3483 12.7306Z" fill="#231F20"/>
<path d="M17.4119 9.96046C17.4119 10.4824 17.6946 10.8401 18.3634 11.11C18.8691 11.3173 18.958 11.3783 18.958 11.5651C18.958 11.8233 18.735 11.9385 18.2298 11.9385C17.858 11.9385 17.5011 11.8882 17.0997 11.7743L16.9361 12.7266L16.9808 12.7348L17.2187 12.7774C17.293 12.7897 17.3973 12.8019 17.5458 12.8139C17.8431 12.8362 18.081 12.8488 18.2445 12.8488C19.568 12.8488 20.1778 12.412 20.1778 11.4717C20.1778 10.9069 19.925 10.574 19.3003 10.3238C18.7651 10.1146 18.7057 10.0699 18.7057 9.87716C18.7057 9.65359 18.9138 9.53996 19.3155 9.53996C19.568 9.53996 19.91 9.56444 20.2222 9.60303L20.4008 8.64834C20.0737 8.60362 19.5829 8.56716 19.3003 8.56716C17.8878 8.56716 17.397 9.20087 17.4119 9.96046Z" fill="#231F20"/>
<path d="M11.6277 10.9455C11.494 10.9311 11.4344 10.9274 11.345 10.9274C10.6464 10.9274 10.2894 11.1385 10.2894 11.5547C10.2894 11.8105 10.4678 11.9752 10.7355 11.9752C11.2409 11.9755 11.6127 11.555 11.6277 10.9455ZM12.4751 12.7817H11.4342L11.464 12.3532C11.1369 12.6923 10.7206 12.8527 10.1553 12.8527C9.47129 12.8527 9.01031 12.3936 9.01031 11.7275C9.01031 10.7222 9.8133 10.1372 11.196 10.1372C11.3447 10.1372 11.5231 10.1471 11.7016 10.1694C11.7461 10.0334 11.761 9.97458 11.761 9.90139C11.761 9.62725 11.538 9.52559 10.958 9.52559C10.6011 9.52559 10.1997 9.5703 9.91709 9.64136L9.75341 9.68394L9.63444 9.71029L9.81276 8.78434C10.4372 8.62572 10.8385 8.56504 11.2995 8.56504C12.37 8.56504 12.9353 8.98342 12.9353 9.77549C12.9353 9.97857 12.9204 10.133 12.8312 10.5921L12.5784 12.0543L12.5339 12.3162L12.5041 12.5254L12.4743 12.6696V12.7817" fill="#231F20"/>
<path d="M15.9548 10.2386C15.9548 10.1534 15.9697 10.0824 15.9697 10.0294C15.9697 9.69433 15.7466 9.49711 15.3748 9.49711C14.9735 9.49711 14.6908 9.76113 14.5867 10.2362L15.9548 10.2386ZM16.5642 12.6923C16.1331 12.8062 15.7166 12.8607 15.2854 12.8586C13.8878 12.8586 13.174 12.2249 13.174 11.0126C13.174 9.59691 14.096 8.55492 15.345 8.55492C16.3708 8.55492 17.0252 9.13781 17.0252 10.0536C17.0252 10.3586 16.9805 10.6527 16.8615 11.0711H14.3932C14.3783 11.1339 14.3783 11.1627 14.3783 11.201C14.3783 11.6782 14.7502 11.922 15.4786 11.922C15.9247 11.922 16.3263 11.843 16.7724 11.662L16.5642 12.6923Z" fill="#231F20"/>
<path d="M28.5786 10.4196C28.5786 9.98896 28.4003 9.58068 27.8949 9.58068C27.2556 9.58068 26.8691 10.3323 26.8691 10.9942C26.8691 11.5529 27.1366 11.9287 27.583 11.9202C27.8504 11.9202 28.4304 11.5526 28.5344 10.9106C28.5637 10.7627 28.5786 10.5985 28.5786 10.4196ZM29.8426 10.9128C29.664 12.2837 28.6976 12.8914 27.419 12.8914C26.0212 12.8914 25.4561 12.0383 25.4561 10.9924C25.4561 9.52985 26.4079 8.54082 27.8949 8.54082C29.1884 8.54082 29.8727 9.35526 29.8727 10.4015C29.8724 10.6551 29.8724 10.6732 29.8426 10.9128Z" fill="#231F20"/>
<path d="M30.2589 12.148H30.3033C30.3033 12.148 30.3185 12.148 30.3331 12.1419C30.3478 12.1357 30.348 12.1216 30.348 12.1094C30.348 12.0993 30.348 12.087 30.3331 12.0812C30.3331 12.075 30.3033 12.075 30.2887 12.075H30.2589V12.148ZM30.2589 12.3085H30.1992V12.0242H30.3182C30.3331 12.0242 30.3629 12.0263 30.3925 12.0407C30.4074 12.0548 30.422 12.0833 30.422 12.1118C30.422 12.1421 30.4071 12.1727 30.3776 12.1847L30.422 12.3087H30.3478L30.303 12.1969H30.2589V12.3085ZM30.3033 12.412C30.4375 12.412 30.5415 12.3023 30.5415 12.1661C30.5415 12.0319 30.4375 11.9223 30.3033 11.9223C30.1697 11.9223 30.0507 12.0319 30.0507 12.1661C30.0507 12.3023 30.1697 12.412 30.3033 12.412ZM29.9765 12.1661C29.9765 11.9894 30.1253 11.8454 30.3036 11.8454C30.4822 11.8454 30.6307 11.9894 30.6307 12.1661C30.6307 12.3449 30.4819 12.4889 30.3036 12.4889C30.125 12.4889 29.9765 12.3449 29.9765 12.1661Z" fill="white"/>
<path d="M8.75774 12.4889H7.50869L8.25206 8.59138L6.54202 12.4889H5.41194L5.20381 8.61586L4.46045 12.4889H3.33037L4.29676 7.41951H6.24447L6.33363 10.5596L7.71656 7.41951H9.73878L8.75774 12.4889Z" fill="white"/>
<path d="M22.6607 12.4405C22.3187 12.5339 22.051 12.5744 21.7683 12.5744C21.129 12.5744 20.7867 12.2536 20.7867 11.6689C20.7867 11.5529 20.8016 11.4294 20.8166 11.2992L20.8908 10.8947L20.9502 10.5676L21.5304 7.41951H22.7645L22.5862 8.36596H23.2255L23.0469 9.36934H22.4076L22.0805 11.0895C22.0656 11.1648 22.0656 11.2215 22.0656 11.2604C22.0656 11.4738 22.1995 11.5651 22.4968 11.5651C22.6306 11.5651 22.735 11.5529 22.8239 11.5262L22.6607 12.4405Z" fill="white"/>
<path d="M25.8575 9.55007L25.8279 9.42019L26.0808 8.77424C26.0209 8.76812 25.9913 8.76626 25.9913 8.76227C25.9171 8.7479 25.8873 8.7399 25.8724 8.7399C25.8428 8.73165 25.7981 8.72979 25.7537 8.72979C25.3374 8.72979 25.0548 8.91051 24.668 9.3981L24.8022 8.66485H23.5084L22.7499 12.7817H23.9843C24.1477 11.8371 24.2222 11.2992 24.3263 10.8521C24.4897 10.1109 25.0401 9.77364 25.4415 9.84869C25.4859 9.85694 25.5157 9.85694 25.5751 9.8793L25.6494 9.90751L25.8575 9.55007Z" fill="#231F20"/>
<path d="M26.2886 8.40057C26.1846 8.35984 26.1697 8.35984 26.1551 8.35584C26.0952 8.34147 26.0507 8.33349 26.0507 8.33136C26.0063 8.32524 25.9616 8.32124 25.9168 8.32124C25.5155 8.32124 25.2182 8.5041 24.8315 8.99169L24.9504 8.36596H23.8204L23.0618 12.4889H24.3109C24.757 9.96846 24.9502 9.52585 25.545 9.52585C25.5897 9.52585 25.6342 9.52985 25.6938 9.53597L25.8426 9.56631L26.2886 8.40057Z" fill="white"/>
<path d="M17.7239 9.67009C17.7239 10.1899 18.0212 10.5495 18.6905 10.8196C19.196 11.0248 19.2705 11.0858 19.2705 11.2747C19.2705 11.5305 19.0475 11.6463 18.5567 11.6463C18.1699 11.6463 17.8279 11.5954 17.4266 11.4837L17.2483 12.4344L17.3076 12.4442L17.5306 12.4847C17.6049 12.4993 17.7241 12.5113 17.8727 12.5217C18.1699 12.544 18.393 12.556 18.5567 12.556C19.8946 12.556 20.5044 12.1214 20.5044 11.181C20.5044 10.6144 20.2518 10.2833 19.6122 10.0334C19.0919 9.82421 19.032 9.77763 19.032 9.5844C19.032 9.36296 19.2404 9.2493 19.6418 9.2493C19.8943 9.2493 20.2217 9.27166 20.5488 9.31025L20.7271 8.35583C20.4 8.31112 19.9095 8.2744 19.6122 8.2744C18.2147 8.27466 17.7239 8.90836 17.7239 9.67009Z" fill="white"/>
<path d="M11.8954 10.653C11.7615 10.6389 11.7019 10.6368 11.6128 10.6368C10.9138 10.6368 10.5569 10.8478 10.5569 11.2641C10.5569 11.5201 10.7206 11.6846 11.003 11.6846C11.5087 11.6849 11.8656 11.2622 11.8954 10.653ZM12.8022 12.4889H11.7613L11.7911 12.0625C11.4789 12.4014 11.0477 12.56 10.4824 12.56C9.8133 12.56 9.35233 12.1009 9.35233 11.4347C9.35233 10.431 10.1553 9.84443 11.538 9.84443C11.6718 9.84443 11.8502 9.85641 12.0434 9.87691C12.0732 9.74064 12.0878 9.68394 12.0878 9.60889C12.0878 9.33661 11.8648 9.23521 11.2849 9.23521C10.9279 9.23521 10.5263 9.2778 10.2588 9.34886L10.0805 9.39356L9.97645 9.42019L10.1401 8.49184C10.7645 8.33348 11.1659 8.27467 11.6269 8.27467C12.6973 8.27467 13.2626 8.69306 13.2626 9.48327C13.2626 9.68634 13.2477 9.84071 13.1735 10.2996L12.9057 11.7642L12.8613 12.0261L12.8315 12.2353L12.8166 12.3771L12.8022 12.4889Z" fill="white"/>
<path d="M16.2223 9.94824C16.2223 9.86094 16.2223 9.79174 16.2223 9.73691C16.2223 9.40183 16.0141 9.20674 15.6423 9.20674C15.241 9.20674 14.9583 9.46864 14.8393 9.94611L16.2223 9.94824ZM16.8767 12.4016C16.4602 12.5134 16.0439 12.5682 15.6125 12.5682C14.2149 12.5682 13.4862 11.9345 13.4862 10.7201C13.4862 9.30654 14.4079 8.26456 15.6569 8.26456C16.683 8.26456 17.3372 8.84743 17.3372 9.76139C17.3372 10.0661 17.2924 10.3626 17.1881 10.7808H14.7201C14.7052 10.8438 14.7052 10.8723 14.7052 10.9106C14.7052 11.3881 15.0767 11.6319 15.7906 11.6319C16.2366 11.6319 16.6382 11.5505 17.0841 11.3698L16.8767 12.4016Z" fill="white"/>
<path d="M28.8759 10.0925C28.8759 9.66186 28.6976 9.25385 28.1922 9.25385C27.5529 9.25385 27.1664 10.0052 27.1664 10.6674C27.1664 11.2279 27.4342 11.604 27.8803 11.5954C28.148 11.5954 28.7277 11.2279 28.8317 10.5859C28.8613 10.4356 28.8759 10.2713 28.8759 10.0925ZM30.1697 10.6208C29.9762 11.9915 29.0244 12.6007 27.7461 12.6007C26.3334 12.6007 25.7683 11.7456 25.7683 10.6996C25.7683 9.23921 26.7347 8.24832 28.222 8.24832C29.5152 8.24832 30.1995 9.06274 30.1995 10.1087C30.1995 10.3645 30.1995 10.381 30.1697 10.6208Z" fill="white"/>
</svg>
