<svg width="33" height="20" viewBox="0 0 33 20" fill="none" xmlns="http://www.w3.org/2000/svg">
<path d="M20.5556 2.13889H11.8056V17.8611H20.5556V2.13889Z" fill="#FF5F00"/>
<path d="M12.3611 10C12.3611 6.80556 13.8611 3.97223 16.1667 2.13889C14.4722 0.805559 12.3333 0 10 0C4.47222 0 0 4.47222 0 10C0 15.5278 4.47222 20 10 20C12.3333 20 14.4722 19.1945 16.1667 17.8611C13.8611 16.0556 12.3611 13.1944 12.3611 10Z" fill="#EB001B"/>
<path d="M32.3611 10C32.3611 15.5278 27.8889 20 22.3611 20C20.0278 20 17.8889 19.1945 16.1944 17.8611C18.5278 16.0278 20 13.1944 20 10C20 6.80556 18.5 3.97223 16.1944 2.13889C17.8889 0.805559 20.0278 0 22.3611 0C27.8889 0 32.3611 4.5 32.3611 10Z" fill="#F79E1B"/>
</svg>
