<?xml version="1.0" encoding="utf-8"?>
<!-- Generator: Adobe Illustrator 23.1.0, SVG Export Plug-In . SVG Version: 6.00 Build 0)  -->
<svg version="1.1" id="Layer_1" xmlns="http://www.w3.org/2000/svg" xmlns:xlink="http://www.w3.org/1999/xlink" x="0px" y="0px"
	 viewBox="0 0 680.3 229.6" style="enable-background:new 0 0 680.3 229.6;" xml:space="preserve">
<style type="text/css">
	.st0{fill-rule:evenodd;clip-rule:evenodd;fill:#1858A6;}
	.st1{fill-rule:evenodd;clip-rule:evenodd;fill:#FDCA10;}
	.st2{fill-rule:evenodd;clip-rule:evenodd;fill:#18A64D;}
	.st3{fill-rule:evenodd;clip-rule:evenodd;fill:#EC6323;}
</style>
<g>
	<path class="st0" d="M195.6,38.3c-5.3-27.5-45.1-0.9-52.1-36.8c-11.8,34.1,16.5,45.2,43.2,44C189.1,42.7,192.1,40.2,195.6,38.3
		L195.6,38.3z"/>
	<path class="st1" d="M179.6,62c-6.5,1.4-13.8-3.3-16.2-3.7c-10.6-1.8-20.9,2.3-23.3,8.3c1.6-19,30.1-27.2,46.6-21.2
		C182.5,50.1,179.9,55.9,179.6,62L179.6,62z"/>
	<path class="st2" d="M122.2,206.9c2.3-0.9,4.6-0.9,6.6-0.2c3.1-2.3,5.9-4.6,8.4-7c-1.7-1.9-2.5-4.4-1.6-7.9
		c3.4-12.9,27-26.4,36.4-43.6c19.2,0.8,34.4-2.8,46.5-10.1c9.7,4.4,20.5,6.6,30.5,5.5c14.3-1.6,18.6,12.7,11.9,26.4
		c-8.3,17-23.7,29.2-36.3,27.7c-1.7-0.2-4-0.7-6.4-1.4c-3.5,2.5-7.5,5.7-11.3,9.3c0.5,1.8,0.6,3.7,0,5.7c-1.8,5.4-7.5,18.3-11.7,17
		c-4.2-1.3-6.1-11.5-4.4-16.9c1.8-5.4,5.9-13.5,10.1-12.1c0.3,0.1,0.6,0.2,0.9,0.3c1.3-3.2,2.9-6.5,4.4-9.5c-0.9-1-1.6-2.1-1.8-3.4
		c-1.3-6.8,5.2-11.6,9.9-20.5c5.7-10.6,0.7-12.1-4.7-4.5c-13.3,18.6-25.6,40.8-52.2,42.6c-2.4,0.2-5.3,0.2-8.2-0.1
		c-4.2,1.6-9.6,4.1-15.1,6.5c0.2,0.3,0.4,0.7,0.5,1.1c1.7,4.1-6.1,8.8-11.3,11c-5.3,2.1-15.6,1-17.2-3.1
		C104.5,215.8,116.9,209.1,122.2,206.9L122.2,206.9z M308.7,87.3c16.9,0,30.6,13.7,30.6,30.6c0,16.9-13.7,30.6-30.6,30.6
		c-11.4,0-21.3-6.2-26.6-15.5c-3.7,0.6-8.1-0.4-10.5-1.8c-4.4,1.3-9.3,2.2-14.3,2.9c-11.8,19.2-72.9-6.4-66.5-43.2
		c13.3,12.8,34.1,8.4,38.8,6.5c10,15,27,9.4,29.4,23c4.2,1,8.6,1.5,13.1,1.7c1-1.4,2.3-2.7,4-3.6c0.6-0.3,1.3-0.6,2-0.8
		c0-2.5,0.3-4.8,0.9-7.1c-0.2-0.1-0.4-0.3-0.6-0.5c-1.6-1.4-2.6-3.4-3.1-5.3c-2.6-0.8-5.3-1.5-8.1-2.2c-10.8,11.2-29.9-0.5-34.2-6.8
		c7-3.2,18-13.1,18.8-18.2c5.1-0.8,21.9,2.2,19.9,12.5c1.9,1.7,4.4,3.8,6.9,6.3c1.7-0.2,3.9,0.1,6.3,0.7v0l1.2,0.4
		C291.5,91.3,299.6,87.3,308.7,87.3L308.7,87.3z M308.5,111c3.9,0,7.1,3.2,7.1,7.1c0,1-0.2,2-0.6,2.9c0.9,1.2,1.8,2.7,2.4,4.3
		c2.4,6,2,12-2.1,15.9c10.1-2.9,17.6-12.2,17.6-23.3c0-7.5-3.4-14.2-8.8-18.6c-0.1,0-0.1,0-0.1-0.1c-2.9-2.2-6.6-4.1-10.2-3.4
		c-7.4,1.5-10.1,7.2-8.5,12.4c0.3,1.1,0.8,2.1,1.4,3C307.3,111.1,307.9,111,308.5,111L308.5,111z M310.9,124.8
		c-0.8,0.3-1.6,0.4-2.4,0.4c-3.9,0-7.1-3.2-7.1-7.1c0-1.3,0.4-2.5,1-3.6c-1-1.3-1.8-2.8-2.5-4.4c-2.2-5.6-1.4-11.6,2.6-15.5
		c-4,1.1-7.6,3.2-10.5,6c1.9,3.2,0.2,8.5-1.4,10.3c-1.6,1.8-3.8,2.2-5.4,2c-0.3,1.6-0.5,3.2-0.5,5c2,0.6,3.8,2.1,4.3,3.2
		c2.1,4.1,1.3,7.3-0.9,9.4c1.8,3,4.3,5.6,7.2,7.6c3.1,1.4,6.5,1.8,9.8,0.9c6-1.7,7.9-5.3,7.3-10
		C312.1,127.4,311.6,126.1,310.9,124.8L310.9,124.8z M191.4,112.7c-8.3,5.4-13.6,11.8-16.7,17.8c-4.7,9.2-2.3,13.6,10,13.3
		c12-0.3,21.5-3.1,29.8-7.8C203.8,130.4,195.6,122.6,191.4,112.7L191.4,112.7z M209.5,29.4c20.7-3.4,39.9,8.5,42.9,26.6
		c3,18.1-11.3,35.6-32,39.1c-20.7,3.4-39.9-8.5-42.9-26.6C174.5,50.4,188.8,32.9,209.5,29.4L209.5,29.4z M185.2,72.9
		c2.2,5.3,6.8,10.9,12.7,12c5.3,1,12.1-2.7,17.9-3.2c5.7-0.5,11.6,2.3,16.6,0.6c6.1-2,10.6-9.4,12-14.9c1.2-4.7,0.5-8.1-7.1-5.5
		c-12.1,4.3-28.8,6.2-44.7,3.3C185.3,63.9,182.9,67.4,185.2,72.9L185.2,72.9z"/>
	<path class="st3" d="M143.5,84.2h22.8c3.3,0,5.3,2.7,4.4,6l-3.7,14c-0.9,3.3-4.3,6-7.6,6h-22.8c-3.3,0-5.3-2.7-4.4-6l3.7-14
		C136.8,86.9,140.2,84.2,143.5,84.2L143.5,84.2z M12.9,84.6h22.8c3.3,0,5.3,2.7,4.4,6l-3.7,14c-0.9,3.3-4.3,6-7.6,6H6
		c-3.3,0-5.3-2.7-4.4-6l3.7-14C6.2,87.3,9.6,84.6,12.9,84.6L12.9,84.6z M38.6,110.7h22.8c3.3,0,5.3,2.7,4.4,6l-3.7,14
		c-0.9,3.3-4.3,6-7.6,6H31.7c-3.3,0-5.3-2.7-4.4-6l3.7-14C31.9,113.4,35.3,110.7,38.6,110.7L38.6,110.7z M63.9,137.2h22.8
		c3.3,0,5.3,2.7,4.4,6l-3.7,14c-0.9,3.3-4.3,6-7.6,6H57c-3.3,0-5.3-2.7-4.4-6l3.7-14C57.2,139.9,60.6,137.2,63.9,137.2L63.9,137.2z
		 M129.2,137h22.8c3.3,0,5.3,2.7,4.4,6l-3.7,14c-0.9,3.3-4.3,6-7.6,6h-22.8c-3.3,0-5.3-2.7-4.4-6l3.7-14
		C122.5,139.7,125.9,137,129.2,137L129.2,137z M78.2,84.4H101c3.3,0,5.3,2.7,4.4,6l-3.7,14c-0.9,3.3-4.3,6-7.6,6H71.3
		c-3.3,0-5.3-2.7-4.4-6l3.7-14C71.5,87.1,74.9,84.4,78.2,84.4L78.2,84.4z M103.9,110.5h22.8c3.3,0,5.3,2.7,4.4,6l-3.7,14
		c-0.9,3.3-4.3,6-7.6,6H97c-3.3,0-5.3-2.7-4.4-6l3.7-14C97.2,113.1,100.6,110.5,103.9,110.5L103.9,110.5z"/>
	<path class="st2" d="M376.7,82.1c-0.4,0-0.8,0-1.2,0l0,0c-2.5,9-5,18-7.5,26.9c-0.5,1.9-2.5,3.5-4.4,3.5c-5.3,0-10.6,0-15.8,0
		c-1.9,0-3.1-1.6-2.5-3.5c5-18.2,10.1-36.4,15.1-54.6c0.5-1.9,2.5-3.4,4.4-3.4c7.2,0,14.4,0,21.6,0c1.2,0,2,0.5,2.4,1.5
		c4.1,10.1,8.2,20.2,12.3,30.4l0,0c0.4,0,0.8,0,1.1,0c2.6-9.5,5.3-19,7.9-28.5c0.5-1.9,2.5-3.4,4.4-3.4c5.3,0,10.6,0,15.9,0
		c1.9,0,3,1.6,2.5,3.4c-5,18.2-10.1,36.4-15.1,54.6c-0.5,1.9-2.5,3.5-4.4,3.5c-7,0-14.1,0-21.1,0c-1.1,0-2-0.5-2.4-1.4
		C385.5,101.4,381.1,91.7,376.7,82.1L376.7,82.1z M445.2,51c5.3,0,10.6,0,15.9,0c1.9,0,3,1.6,2.5,3.4c-5,18.2-10.1,36.4-15.1,54.6
		c-0.5,1.9-2.5,3.5-4.4,3.5c-5.3,0-10.5,0-15.8,0c-1.9,0-3-1.6-2.5-3.5c5-18.2,10.1-36.4,15.1-54.6C441.3,52.5,443.3,51,445.2,51
		L445.2,51z M487.6,82.1L487.6,82.1c-0.4,0-0.8,0-1.1,0l0,0c-2.5,9-5,18-7.5,26.9c-0.5,1.9-2.5,3.5-4.4,3.5c-5.3,0-10.6,0-15.9,0
		c-1.9,0-3-1.6-2.5-3.5c5.1-18.2,10.1-36.4,15.1-54.6c0.5-1.9,2.5-3.4,4.4-3.4c7.2,0,14.4,0,21.5,0c1.2,0,2,0.5,2.4,1.5
		c4.1,10.1,8.2,20.2,12.3,30.3c0.4,0,0.8,0,1.2,0l0,0c2.6-9.5,5.3-19,7.9-28.5c0.5-1.9,2.5-3.4,4.4-3.4c5.3,0,10.5,0,15.8,0
		c1.9,0,3,1.6,2.5,3.4c-5,18.2-10.1,36.4-15.1,54.6c-0.5,1.9-2.5,3.5-4.4,3.5c-7.1,0-14.1,0-21.1,0c-1.2,0-2-0.5-2.4-1.4
		C496.4,101.4,492.1,91.7,487.6,82.1L487.6,82.1z M590.1,67.6c-6,0-12.1,0-18.2,0c-1.9,0-3-1.6-2.5-3.5c0.9-3.2,1.8-6.4,2.7-9.7
		c0.5-1.9,2.5-3.5,4.4-3.5c12.5,0,25,0,37.5,0c1.9,0,3,1.6,2.5,3.4c-2.4,8.8-4.9,17.7-7.3,26.5c-0.9,3.3-1.7,6.5-3,9.8
		c-2.3,5.7-6.4,11.1-11.8,14.9c-6.3,4.4-13.6,6.5-20.4,7.2c-4.6,0.5-9.1,0.5-13.5,0c-3.4-0.3-6.6-1.1-9.5-2.3
		c-3.6-1.5-6.6-3.8-8.6-7c-1.8-3-2.5-6.8-2.3-10.8c0.2-3.4,1.2-6.9,2.2-10.4c0.5-1.9,2.5-3.4,4.4-3.4c5.3,0,10.6,0,15.9,0
		c0.9,0,1.7,0.3,2.1,1c0.5,0.7,0.6,1.5,0.3,2.4c-0.3,1.2-0.7,2.4-1,3.6c-0.6,2.3-0.6,4.8,0.6,6.5c1.2,1.8,3.6,2.5,6,2.7
		c2.5,0.2,5.2-0.1,7.8-1.2c1.9-0.8,3.6-2.3,4.7-4c1-1.6,1.6-3.2,2.1-4.9C586.8,79.3,588.5,73.4,590.1,67.6L590.1,67.6z M654.4,104.9
		L654.4,104.9c-8.6-0.1-17.2-0.1-25.8,0c-1,1.8-2.1,3.5-3.2,5.3c-0.9,1.4-2.4,2.4-3.9,2.4c-5.7,0-11.4,0-17.1,0
		c-1.2,0-2-0.5-2.4-1.5c-0.4-0.9-0.2-2.1,0.5-3.2c11.6-18.2,23.3-36.4,34.9-54.6c0.9-1.4,2.4-2.3,3.9-2.3c10.1,0,20.3,0,30.4,0
		c1.5,0,2.5,0.9,2.6,2.3c1.6,18.2,3.1,36.4,4.7,54.6c0.1,1.1-0.4,2.2-1.3,3.2c-0.9,0.9-2.1,1.5-3.2,1.5c-5.7,0-11.4,0-17.1,0
		c-1.5,0-2.5-0.9-2.6-2.4C654.5,108.4,654.4,106.6,654.4,104.9L654.4,104.9z M637.6,89.9c5.3,0,10.7,0,16.1,0
		c-0.4-7.3-0.8-14.6-1.1-22l0,0c-0.6,0-1.2,0-1.8,0l0,0C646.4,75.2,642,82.6,637.6,89.9L637.6,89.9z"/>
	<path class="st3" d="M408.5,146.3c-6.2,0-13.4,0-19.6,0c-1.9,0-3-1.6-2.5-3.4c0.9-3.3,1.8-6.5,2.7-9.8c0.5-1.9,2.5-3.5,4.4-3.5
		c19.9,0,40.9,0,60.8,0c1.9,0,3,1.6,2.5,3.5c-0.9,3.2-1.8,6.5-2.7,9.8c-0.5,1.9-2.5,3.4-4.4,3.4c-6.2,0-12.3,0-18.5,0l0,0
		c-3.8,13.8-7.6,27.5-11.4,41.3c-0.5,1.9-2.5,3.4-4.4,3.4c-5.3,0-10.6,0-15.9,0c-1.9,0-3-1.6-2.5-3.4
		C400.9,173.9,404.7,160.1,408.5,146.3L408.5,146.3z M485.7,183.5c-8.6-0.1-17.2,0-25.8,0l0,0c-1.1,1.8-2.1,3.5-3.2,5.3
		c-0.9,1.4-2.4,2.4-3.9,2.4c-5.7,0-11.4,0-17.1,0c-1.2,0-2-0.5-2.4-1.5c-0.4-1-0.3-2.1,0.5-3.2c11.6-18.2,23.3-36.4,34.9-54.6
		c0.9-1.4,2.4-2.3,3.9-2.3c10.1,0,20.3,0,30.4,0c1.5,0,2.5,0.9,2.6,2.3c1.6,18.2,3.1,36.4,4.7,54.6c0.1,1.1-0.4,2.2-1.3,3.2
		c-0.9,1-2.1,1.5-3.2,1.5c-5.7,0-11.4,0-17.1,0c-1.5,0-2.5-0.9-2.6-2.4C485.9,187,485.8,185.3,485.7,183.5L485.7,183.5z
		 M560.3,148.8L560.3,148.8c0.5,0,1,0,1.6,0c5.1-5.8,10.1-11.6,15.2-17.5c0.9-1.1,2.2-1.7,3.4-1.7c5.9,0,11.8,0,17.7,0
		c1.3,0,2.2,0.6,2.5,1.8c0.3,1.1-0.1,2.4-1,3.5c-7.7,8.6-15.3,17.2-23,25.8c2.9,8.4,5.8,16.7,8.8,25.1c0.4,1.1,0.1,2.4-0.9,3.5
		c-0.9,1.1-2.2,1.8-3.5,1.8c-5.9,0-11.8,0-17.7,0c-1.2,0-2.1-0.6-2.5-1.7c-1.9-5.6-3.8-11.2-5.6-16.8l0,0c-0.5,0-1,0-1.5,0l0,0
		c-5,5.6-9.9,11.2-14.9,16.9c-0.9,1-2.2,1.7-3.4,1.7c-5.9,0-11.8,0-17.7,0c-1.3,0-2.2-0.6-2.5-1.8c-0.3-1.1,0.1-2.4,1.1-3.5
		c7.5-8.4,15.1-16.8,22.7-25.1l0,0c-2.9-8.6-5.8-17.2-8.7-25.8c-0.4-1.1,0-2.4,0.9-3.5c0.9-1.1,2.2-1.8,3.5-1.8c5.9,0,11.9,0,17.8,0
		c1.3,0,2.2,0.6,2.5,1.7C556.8,137.2,558.6,143,560.3,148.8L560.3,148.8z M612.1,129.6c5.3,0,10.6,0,15.9,0c1.9,0,3,1.6,2.5,3.5
		c-5,18.2-10.1,36.4-15.1,54.6c-0.5,1.9-2.5,3.4-4.4,3.4c-5.3,0-10.6,0-15.8,0c-1.9,0-3.1-1.6-2.5-3.4c5-18.2,10.1-36.4,15.1-54.6
		C608.3,131.2,610.2,129.6,612.1,129.6L612.1,129.6z M482.1,146.6c-4.4,7.3-8.8,14.6-13.2,21.9l0,0c5.4,0,10.7,0,16.1,0l0,0
		c-0.4-7.3-0.8-14.6-1.1-21.9l0,0C483.3,146.6,482.7,146.6,482.1,146.6L482.1,146.6z"/>
	<path class="st2" d="M200.2,69.8c2.9,0,5.3,2.3,5.3,5.3c0,2.9-2.3,5.3-5.3,5.3c-2.9,0-5.3-2.4-5.3-5.3
		C195,72.2,197.4,69.8,200.2,69.8L200.2,69.8z M199.6,71.8c1.1,0,2.1,0.9,2.1,2.1c0,1.1-0.9,2-2.1,2c-1.1,0-2-0.9-2-2
		C197.6,72.7,198.5,71.8,199.6,71.8L199.6,71.8z"/>
	<path class="st2" d="M227.2,67.9c2.9,0,5.3,2.4,5.3,5.3c0,2.9-2.3,5.3-5.3,5.3c-2.9,0-5.3-2.4-5.3-5.3
		C222,70.3,224.4,67.9,227.2,67.9L227.2,67.9z M226.7,69.9c1.1,0,2,0.9,2,2.1c0,1.1-0.9,2-2,2c-1.1,0-2-0.9-2-2
		C224.6,70.8,225.5,69.9,226.7,69.9L226.7,69.9z"/>
</g>
</svg>
