<svg width="112" height="78" viewBox="0 0 112 78" fill="none" xmlns="http://www.w3.org/2000/svg">
<g clip-path="url(#clip0_27_681)">
<path fill-rule="evenodd" clip-rule="evenodd" d="M49.4917 20.1828C47.497 11.878 32.5177 19.911 29.8831 9.06946C25.442 19.3674 36.0932 22.7195 46.1421 22.3571C47.0454 21.5115 48.1745 20.7565 49.4917 20.1828Z" fill="#1858A6"/>
<path fill-rule="evenodd" clip-rule="evenodd" d="M43.4714 27.3404C41.025 27.7632 38.2775 26.3438 37.3743 26.223C33.3848 25.6794 29.5083 26.9176 28.605 28.7296C29.2072 22.9917 39.9336 20.5154 46.1436 22.3273C44.5628 23.7467 43.5843 25.4982 43.4714 27.3404Z" fill="#FDCA10"/>
<path fill-rule="evenodd" clip-rule="evenodd" d="M21.8685 71.0988C22.7342 70.827 23.5998 70.827 24.3525 71.0384C25.5193 70.3438 26.5731 69.6492 27.514 68.9245C26.8742 68.3507 26.5731 67.5957 26.9118 66.5387C28.1915 62.643 37.0737 58.5661 40.6115 53.3719C47.8377 53.6135 53.5584 52.5263 58.1125 50.3218C61.7632 51.6505 65.8279 52.3149 69.5916 51.9827C74.9736 51.4995 76.592 55.818 74.0703 59.9553C70.9465 65.0892 65.1505 68.7735 60.4083 68.3205C59.7685 68.2601 58.9028 68.1091 57.9995 67.8977C56.6823 68.6527 55.1768 69.619 53.7466 70.7062C53.9348 71.2498 53.9724 71.8236 53.7466 72.4276C53.0692 74.0583 50.9239 77.954 49.3432 77.5614C47.7624 77.1688 47.0473 74.0885 47.6872 72.4578C48.3646 70.827 49.9077 68.3809 51.4884 68.8037C51.6013 68.8339 51.7143 68.8641 51.8272 68.8943C52.3164 67.9279 52.9186 66.9313 53.4832 66.0253C53.1444 65.7233 52.881 65.3912 52.8057 64.9986C52.3164 62.945 54.7628 61.4955 56.5317 58.8077C58.677 55.6066 56.7952 55.1536 54.7628 57.4488C49.7572 63.0658 45.1279 69.77 35.1166 70.3136C34.2133 70.374 33.1218 70.374 32.0304 70.2834C30.4496 70.7666 28.4173 71.5216 26.3473 72.2464C26.4226 72.337 26.4978 72.4578 26.5355 72.5786C27.1753 73.8167 24.2396 75.2361 22.2825 75.9005C20.2878 76.5347 16.4112 76.2025 15.8091 74.9643C15.2069 73.7865 19.8738 71.7632 21.8685 71.0988ZM92.0606 34.9806C98.4211 34.9806 103.577 39.1179 103.577 44.2215C103.577 49.3252 98.4211 53.4625 92.0606 53.4625C87.77 53.4625 84.044 51.5901 82.0493 48.7816C80.6567 48.9628 79.0007 48.6608 78.0974 48.238C76.4414 48.6306 74.5972 48.9024 72.7154 49.1138C68.2743 54.912 45.2784 47.181 47.6872 36.0677C52.6928 39.9332 60.5212 38.6045 62.2901 38.0307C66.0538 42.5606 72.452 40.8694 73.3552 44.9765C74.936 45.2785 76.592 45.4295 78.2856 45.4899C78.662 45.0671 79.1512 44.6745 79.7911 44.4027C80.0169 44.3121 80.2803 44.2215 80.5438 44.1611C80.5438 43.4061 80.6567 42.7116 80.8825 42.017C80.8073 41.9868 80.732 41.9264 80.6567 41.866C80.0545 41.4432 79.6782 40.8392 79.49 40.2654C78.5114 40.0238 77.4952 39.8124 76.4414 39.601C72.3767 42.9833 65.1881 39.45 63.5697 37.5475C66.2043 36.5811 70.3443 33.5914 70.6454 32.0512C72.5649 31.8096 78.8878 32.7156 78.1351 35.8261C78.8502 36.3395 79.7911 36.9737 80.732 37.7287C81.3718 37.6683 82.1998 37.7589 83.1031 37.9401L83.5547 38.0609C85.5871 36.1885 88.6356 34.9806 92.0606 34.9806ZM91.9853 42.1378C93.4531 42.1378 94.6575 43.1041 94.6575 44.2819C94.6575 44.5839 94.5822 44.8859 94.4317 45.1577C94.7704 45.5201 95.1091 45.9731 95.3349 46.4563C96.2382 48.2682 96.0877 50.0802 94.5446 51.2579C98.3458 50.3821 101.169 47.5736 101.169 44.2215C101.169 41.9566 99.8889 39.9332 97.8566 38.6045C97.8189 38.6045 97.8189 38.6045 97.8189 38.5743C96.7275 37.9099 95.3349 37.3361 93.98 37.5475C91.1949 38.0005 90.1787 39.7218 90.7809 41.2922C90.8938 41.6244 91.082 41.9264 91.3078 42.1982C91.5337 42.168 91.7595 42.1378 91.9853 42.1378ZM92.8886 46.3053C92.5875 46.3959 92.2864 46.4261 91.9853 46.4261C90.5175 46.4261 89.3131 45.4597 89.3131 44.2819C89.3131 43.8893 89.4636 43.5269 89.6895 43.1947C89.3131 42.8022 89.012 42.3492 88.7485 41.866C87.9205 40.1748 88.2216 38.3629 89.7271 37.1851C88.2216 37.5173 86.8667 38.1515 85.7753 38.9971C86.4904 39.9634 85.8505 41.564 85.2484 42.1076C84.6462 42.6512 83.8182 42.772 83.216 42.7116C83.1031 43.1947 83.0278 43.6779 83.0278 44.2215C83.7805 44.4027 84.458 44.8557 84.6462 45.1879C85.4365 46.4261 85.1355 47.3924 84.3074 48.0266C84.9849 48.9326 85.9258 49.7178 87.0173 50.3218C88.184 50.7445 89.4636 50.8653 90.7057 50.5935C92.9638 50.0802 93.6789 48.993 93.4531 47.5736C93.3402 47.0904 93.152 46.6979 92.8886 46.3053ZM47.913 42.6512C44.7891 44.2819 42.7944 46.2147 41.6277 48.0266C39.8588 50.8049 40.762 52.1337 45.3913 52.0431C49.9077 51.9525 53.4832 51.1069 56.607 49.6876C52.5799 47.9964 49.4937 45.6409 47.913 42.6512ZM54.7252 17.4952C62.5159 16.4685 69.7421 20.0622 70.8712 25.5282C72.0003 30.9943 66.6183 36.2791 58.8275 37.3361C51.0368 38.3629 43.8106 34.7692 42.6815 29.3031C41.5524 23.8371 46.9344 18.5522 54.7252 17.4952ZM45.5795 30.6319C46.4075 32.2324 48.1388 33.9236 50.3593 34.2558C52.3541 34.5578 54.9134 33.4404 57.0963 33.2894C59.2416 33.1384 61.4621 33.984 63.3439 33.4706C65.6397 32.8666 67.3334 30.6319 67.8603 28.9709C68.3119 27.5516 68.0485 26.5248 65.1881 27.31C60.6341 28.6085 54.3488 29.1823 48.3646 28.3065C45.6171 27.9139 44.7139 28.9709 45.5795 30.6319Z" fill="#18A64D"/>
<path fill-rule="evenodd" clip-rule="evenodd" d="M51.2252 29.6957C52.3167 29.6957 53.2199 30.3903 53.2199 31.2963C53.2199 32.172 52.3543 32.8968 51.2252 32.8968C50.1337 32.8968 49.2305 32.172 49.2305 31.2963C49.2681 30.4205 50.1714 29.6957 51.2252 29.6957ZM50.9994 30.2997C51.4134 30.2997 51.7897 30.5715 51.7897 30.9339C51.7897 31.2661 51.451 31.5379 50.9994 31.5379C50.5854 31.5379 50.2467 31.2661 50.2467 30.9339C50.2467 30.5715 50.5854 30.2997 50.9994 30.2997Z" fill="#18A64D"/>
<path fill-rule="evenodd" clip-rule="evenodd" d="M61.3863 29.1217C62.4778 29.1217 63.3811 29.8465 63.3811 30.7223C63.3811 31.5981 62.5154 32.3228 61.3863 32.3228C60.2949 32.3228 59.3916 31.5981 59.3916 30.7223C59.4292 29.8465 60.3325 29.1217 61.3863 29.1217ZM61.1982 29.7257C61.6122 29.7257 61.9509 29.9975 61.9509 30.3599C61.9509 30.6921 61.6122 30.9639 61.1982 30.9639C60.7842 30.9639 60.4454 30.6921 60.4454 30.3599C60.4078 29.9975 60.7465 29.7257 61.1982 29.7257Z" fill="#18A64D"/>
</g>
<defs>
<clipPath id="clip0_27_681">
<rect width="112" height="78" fill="white"/>
</clipPath>
</defs>
</svg>
