<svg width="32" height="20" viewBox="0 0 32 20" fill="none" xmlns="http://www.w3.org/2000/svg">
<path d="M31.4848 20H0V-1.46526e-05H31.4848V20Z" fill="white"/>
<path d="M0.52417 16.75H30.9594V19.479H0.52417V16.75V16.75Z" fill="#F7B600"/>
<path d="M0.52417 3.2533H30.9594V0.524592H0.52417V3.2533V3.2533Z" fill="#1A1F71"/>
<path d="M15.137 5.71694L13.6117 12.8473H11.7669L13.2922 5.71694H15.137ZM22.8975 10.321L23.8688 7.64336L24.4268 10.321H22.8975V10.321ZM24.9567 12.8473H26.6623L25.1721 5.71694H23.5985C23.2435 5.71694 22.9453 5.9229 22.8129 6.23965L20.0449 12.8473H21.9821L22.3663 11.7822H24.7331L24.9567 12.8473ZM20.1411 10.5193C20.1488 8.63776 17.5395 8.53339 17.5565 7.69263C17.5628 7.4371 17.8062 7.16496 18.3391 7.09543C18.6031 7.06132 19.3324 7.03406 20.1584 7.41465L20.4816 5.90177C20.0377 5.74128 19.4666 5.58677 18.7562 5.58677C16.9325 5.58677 15.6496 6.55537 15.6394 7.94349C15.6275 8.97025 16.5557 9.54252 17.2538 9.88448C17.9728 10.2337 18.2139 10.4582 18.2106 10.7703C18.2055 11.2487 17.6364 11.4605 17.1073 11.4684C16.1795 11.4831 15.6416 11.2176 15.2126 11.0178L14.8778 12.5808C15.3094 12.7786 16.1049 12.9505 16.9287 12.9592C18.8674 12.9592 20.1354 12.0017 20.1411 10.5193ZM12.5009 5.71694L9.51211 12.8473H7.56207L6.09117 7.15665C6.00211 6.80696 5.92456 6.67825 5.65315 6.53045C5.20959 6.2895 4.47712 6.06415 3.83328 5.92392L3.87672 5.71694H7.01604C7.41558 5.71694 7.77533 5.98296 7.86672 6.44357L8.64393 10.57L10.5626 5.71694H12.5009Z" fill="#1A1F71"/>
<path d="M17.4979 14.81H16.7484V15.5076H17.5868V15.7174H16.4958V13.7819H17.5438V13.9917H16.7484V14.6031H17.4979V14.81Z" fill="#1A1F71"/>
<path d="M17.974 13.6786H18.2266V15.7173H17.974V13.6786Z" fill="#1A1F71"/>
<path d="M19.6046 14.8874C19.6076 14.7295 19.5386 14.4797 19.2544 14.4797C18.9959 14.4797 18.8868 14.7123 18.8666 14.8874H19.6046ZM18.8639 15.0683C18.8696 15.4101 19.085 15.5508 19.3404 15.5508C19.5214 15.5508 19.6334 15.5191 19.7253 15.4791L19.7712 15.66C19.6822 15.7 19.5272 15.7489 19.306 15.7489C18.8783 15.7489 18.6228 15.4646 18.6228 15.0454C18.6228 14.6262 18.8696 14.2988 19.2745 14.2988C19.731 14.2988 19.8488 14.6951 19.8488 14.9507C19.8488 15.0023 19.8459 15.0396 19.84 15.0683H18.8639V15.0683Z" fill="#1A1F71"/>
<path d="M21.2236 15.6685C21.1575 15.7001 21.011 15.7489 20.8245 15.7489C20.4052 15.7489 20.1325 15.4647 20.1325 15.0397C20.1325 14.6118 20.4252 14.2989 20.879 14.2989C21.0282 14.2989 21.1603 14.3361 21.2293 14.3735L21.172 14.5659C21.1115 14.5343 21.0167 14.4997 20.879 14.4997C20.5602 14.4997 20.388 14.7381 20.388 15.0254C20.388 15.3469 20.5947 15.545 20.8704 15.545C21.014 15.545 21.1087 15.5106 21.1804 15.479L21.2236 15.6685Z" fill="#1A1F71"/>
<path d="M21.9323 13.9945V14.3275H22.2939V14.5198H21.9323V15.2693C21.9323 15.4417 21.9811 15.5393 22.1218 15.5393C22.1906 15.5393 22.231 15.5336 22.2683 15.5219L22.2798 15.7145C22.231 15.7317 22.1534 15.7489 22.0558 15.7489C21.938 15.7489 21.8432 15.7086 21.783 15.6428C21.7141 15.5651 21.6854 15.4417 21.6854 15.2781V14.5198H21.4699V14.3275H21.6854V14.0691L21.9323 13.9945Z" fill="#1A1F71"/>
<path d="M22.6469 14.7611C22.6469 14.5974 22.6438 14.4568 22.6354 14.3275H22.8565L22.868 14.6031H22.8765C22.9397 14.4166 23.0947 14.2988 23.2641 14.2988C23.29 14.2988 23.3101 14.3017 23.3332 14.3045V14.5429C23.3072 14.5371 23.2816 14.5371 23.2469 14.5371C23.069 14.5371 22.9425 14.6692 22.9081 14.8588C22.9024 14.8932 22.8995 14.9362 22.8995 14.9766V15.7174H22.6469V14.7611Z" fill="#1A1F71"/>
<path d="M23.7864 15.0254C23.7864 15.3297 23.9587 15.5594 24.2056 15.5594C24.4468 15.5594 24.6276 15.3325 24.6276 15.0195C24.6276 14.7841 24.51 14.4882 24.2113 14.4882C23.9157 14.4882 23.7864 14.764 23.7864 15.0254ZM24.8862 15.0109C24.8862 15.5249 24.5272 15.7489 24.1941 15.7489C23.8208 15.7489 23.5281 15.4731 23.5281 15.034C23.5281 14.5716 23.8352 14.2989 24.2171 14.2989C24.6162 14.2989 24.8862 14.5888 24.8862 15.0109" fill="#1A1F71"/>
<path d="M25.2733 14.7036C25.2733 14.5573 25.2703 14.4424 25.2618 14.3276H25.4857L25.5001 14.5573H25.5058C25.5748 14.428 25.7356 14.2989 25.9653 14.2989C26.1575 14.2989 26.4562 14.4137 26.4562 14.8902V15.7173H26.2036V14.9162C26.2036 14.6923 26.1204 14.5055 25.8821 14.5055C25.7184 14.5055 25.5891 14.6233 25.5433 14.764C25.5316 14.7956 25.526 14.8386 25.526 14.8818V15.7173H25.2733V14.7036Z" fill="#1A1F71"/>
</svg>
