<svg width="50" height="20" viewBox="0 0 50 20" fill="none" xmlns="http://www.w3.org/2000/svg">
<g clip-path="url(#clip0)">
<path d="M21.6666 19.7115H17.6162L20.1496 0.350952H24.1997L21.6666 19.7115Z" fill="white"/>
<path d="M36.3495 0.824133C35.5506 0.4324 34.2835 -0.00012207 32.7167 -0.00012207C28.7168 -0.00012207 25.9002 2.63607 25.8829 6.40503C25.8497 9.18576 27.8995 10.7302 29.4327 11.6574C30.9997 12.6049 31.5324 13.2233 31.5324 14.0678C31.5165 15.3648 30.2661 15.9627 29.1 15.9627C27.4829 15.9627 26.6165 15.6544 25.2997 14.9328L24.7664 14.6235L24.1996 18.9695C25.1495 19.5044 26.8997 19.9791 28.7168 19.9999C32.9668 19.9999 35.7336 17.4045 35.7664 13.3881C35.7825 11.1841 34.7001 9.49536 32.3665 8.1154C30.9499 7.22955 30.0823 6.63224 30.0823 5.72586C30.0989 4.90188 30.8161 4.05791 32.4152 4.05791C33.732 4.01658 34.6995 4.40776 35.4324 4.79922L35.7987 5.00481L36.3495 0.824133V0.824133Z" fill="white"/>
<path d="M41.7327 12.8527C42.0663 11.7405 43.3498 7.43582 43.3498 7.43582C43.333 7.47715 43.6827 6.30305 43.8827 5.58227L44.1658 7.25049C44.1658 7.25049 44.9328 11.8848 45.0994 12.8527C44.4663 12.8527 42.5328 12.8527 41.7327 12.8527ZM46.7324 0.350952H43.5994C42.6333 0.350952 41.8993 0.700802 41.4825 1.9573L35.4662 19.7112H39.7161C39.7161 19.7112 40.4158 17.3217 40.5662 16.807C41.0324 16.807 45.1667 16.807 45.7665 16.807C45.8828 17.4867 46.2498 19.7112 46.2498 19.7112H50L46.7324 0.350952V0.350952Z" fill="white"/>
<path d="M14.2332 0.350952L10.2666 13.553L9.83316 10.8755C9.09981 7.78594 6.79988 4.42925 4.23328 2.76021L7.86656 19.691H12.1497L18.5161 0.350952H14.2332V0.350952Z" fill="white"/>
<path d="M6.58329 0.350952H0.0666676L0 0.742137C5.08337 2.34876 8.44999 6.22147 9.83318 10.8763L8.41654 1.97838C8.18332 0.741864 7.46658 0.391741 6.58329 0.350952Z" fill="#BABABA"/>
</g>
<defs>
<clipPath id="clip0">
<rect width="50" height="20" fill="white"/>
</clipPath>
</defs>
</svg>
